<svg width="15" height="15" viewBox="0 0 15 15" fill="none" xmlns="http://www.w3.org/2000/svg">
<path d="M7.5 0C3.36379 0 7.465e-06 3.36378 0 7.5C-3.685e-06 11.6362 3.36378 15 7.5 15C11.6362 15 15 11.6362 15 7.5C15 3.36378 11.6362 5e-08 7.5 0ZM10.4932 4.99707C10.5934 4.99473 10.692 5.02257 10.7762 5.07697C10.8604 5.13137 10.9263 5.20983 10.9654 5.30216C11.0044 5.39449 11.0148 5.49643 10.9952 5.59475C10.9756 5.69307 10.9269 5.78322 10.8555 5.85352L6.85449 9.85449C6.7608 9.94763 6.63406 9.99991 6.50195 9.99991C6.36985 9.99991 6.2431 9.94763 6.14941 9.85449L4.14844 7.85449C4.10034 7.80855 4.06189 7.75347 4.03534 7.69248C4.00879 7.6315 3.99468 7.56582 3.99382 7.49931C3.99297 7.4328 4.00539 7.36679 4.03037 7.30514C4.05534 7.24349 4.09236 7.18745 4.13927 7.14028C4.18617 7.09312 4.24201 7.05579 4.30352 7.03048C4.36503 7.00516 4.43098 6.99237 4.49749 6.99286C4.564 6.99335 4.62975 7.0071 4.69088 7.03331C4.75202 7.05952 4.80731 7.09766 4.85352 7.14551L6.5 8.79492L10.1465 5.14844C10.2378 5.05453 10.3622 5.00018 10.4932 4.99707Z" fill="#6A96F8"/>
</svg>
